{
  "accessors": [
    {
      "bufferView": 2,
      "componentType": 5126,
      "count": 1329,
      "max": [
        1.809177041053772,
        0.7717090249061584,
        4.044103145599365
      ],
      "min": [
        -1.1991649866104126,
        -1.5370160341262817,
        -3.4341750144958496
      ],
      "type": "VEC3"
    },
    {
      "bufferView": 2,
      "byteOffset": 15948,
      "componentType": 5126,
      "count": 1329,
      "max": [
        0.9991923570632935,
        0.9992858171463013,
        0.9967547655105591
      ],
      "min": [
        -0.9995192885398865,
        -0.9996995329856873,
        -0.9918410181999207
      ],
      "type": "VEC3"
    },
    {
      "bufferView": 3,
      "componentType": 5126,
      "count": 1329,
      "max": [
        0.9943613409996033,
        0.9987468123435974,
        0.9993981122970581,
        1.0
      ],
      "min": [
        -0.9993568062782288,
        -0.9988448619842529,
        -0.9952172040939331,
        -1.0
      ],
      "type": "VEC4"
    },
    {
      "bufferView": 1,
      "componentType": 5126,
      "count": 1329,
      "max": [
        0.9785699844360352,
        0.9758999943733215
      ],
      "min": [
        0.018869999796152115,
        0.022390000522136688
      ],
      "type": "VEC2"
    },
    {
      "bufferView": 0,
      "componentType": 5125,
      "count": 7053,
      "type": "SCALAR"
    }
  ],
  "asset": {
    "extras": {
      "author": "Ant B-D (https://sketchfab.com/ant_bd)",
      "license": "CC-BY-4.0 (http://creativecommons.org/licenses/by/4.0/)",
      "source": "https://sketchfab.com/3d-models/hand-anatomy-reference-2024d77a872a45f1baf6d81b51fe18a6",
      "title": "Hand Anatomy Reference"
    },
    "generator": "Sketchfab-12.68.0",
    "version": "2.0"
  },
  "bufferViews": [
    {
      "buffer": 0,
      "byteLength": 28212,
      "name": "floatBufferViews",
      "target": 34963
    },
    {
      "buffer": 0,
      "byteLength": 10632,
      "byteOffset": 28212,
      "byteStride": 8,
      "name": "floatBufferViews",
      "target": 34962
    },
    {
      "buffer": 0,
      "byteLength": 31896,
      "byteOffset": 38844,
      "byteStride": 12,
      "name": "floatBufferViews",
      "target": 34962
    },
    {
      "buffer": 0,
      "byteLength": 21264,
      "byteOffset": 70740,
      "byteStride": 16,
      "name": "floatBufferViews",
      "target": 34962
    }
  ],
  "buffers": [
    {
      "byteLength": 92004,
      "uri": "scene.bin"
    }
  ],
  "images": [
    {
      "uri": "textures/Hand_baseColor.jpeg"
    },
    {
      "uri": "textures/Hand_metallicRoughness.png"
    },
    {
      "uri": "textures/Hand_normal.png"
    }
  ],
  "materials": [
    {
      "doubleSided": true,
      "name": "Hand",
      "normalTexture": {
        "index": 2
      },
      "occlusionTexture": {
        "index": 1
      },
      "pbrMetallicRoughness": {
        "baseColorTexture": {
          "index": 0
        },
        "metallicFactor": 0.0,
        "metallicRoughnessTexture": {
          "index": 1
        }
      }
    }
  ],
  "meshes": [
    {
      "name": "Object_0",
      "primitives": [
        {
          "attributes": {
            "NORMAL": 1,
            "POSITION": 0,
            "TANGENT": 2,
            "TEXCOORD_0": 3
          },
          "indices": 4,
          "material": 0,
          "mode": 4
        }
      ]
    }
  ],
  "nodes": [
    {
      "children": [
        1
      ],
      "matrix": [
        0.06053999811410904,
        0.0,
        0.0,
        0.0,
        0.0,
        1.3442579963409482e-17,
        -0.06053999811410904,
        0.0,
        0.0,
        0.06053999811410904,
        1.3442579963409482e-17,
        0.0,
        0.0,
        0.0,
        0.0,
        1.0
      ],
      "name": "Sketchfab_model"
    },
    {
      "children": [
        2
      ],
      "name": "3397145b0bba48a58ce3021f758fd5de.obj.cleaner.materialmerger.gles"
    },
    {
      "mesh": 0,
      "name": "Object_2"
    }
  ],
  "samplers": [
    {
      "magFilter": 9729,
      "minFilter": 9987,
      "wrapS": 10497,
      "wrapT": 10497
    }
  ],
  "scene": 0,
  "scenes": [
    {
      "name": "Sketchfab_Scene",
      "nodes": [
        0
      ]
    }
  ],
  "textures": [
    {
      "sampler": 0,
      "source": 0
    },
    {
      "sampler": 0,
      "source": 1
    },
    {
      "sampler": 0,
      "source": 2
    }
  ]
}
